<!DOCTYPE svg PUBLIC "-//W3C//DTD SVG 1.1//EN" "http://www.w3.org/Graphics/SVG/1.1/DTD/svg11.dtd">
<!-- Uploaded to: SVG Repo, www.svgrepo.com, Transformed by: SVG Repo Mixer Tools -->
<svg fill="#000000" height="800px" width="800px" version="1.1" id="Capa_1" xmlns="http://www.w3.org/2000/svg" xmlns:xlink="http://www.w3.org/1999/xlink" viewBox="0 0 55 55" xml:space="preserve">
<g id="SVGRepo_bgCarrier" stroke-width="0"/>
<g id="SVGRepo_tracerCarrier" stroke-linecap="round" stroke-linejoin="round"/>
<g id="SVGRepo_iconCarrier"> <g> <g> <path d="M21.667,33.319c-0.069,0.075-6.9,7.594-2.681,17.087C19.152,50.779,19.518,51,19.901,51c0.136,0,0.273-0.027,0.406-0.086 c0.504-0.225,0.732-0.815,0.507-1.32c-3.674-8.267,2.074-14.647,2.321-14.915c0.374-0.404,0.35-1.036-0.054-1.411 C22.676,32.893,22.044,32.915,21.667,33.319z"/> <path d="M38.788,53c2.408-2.283,3.712-5.384,3.712-9c0-5.759-3.22-11.722-8.013-14.838c-0.014-0.009-0.03-0.012-0.044-0.02 l-1.945-28.21C32.461,0.407,32.025,0,31.5,0h-9c-0.525,0-0.961,0.407-0.998,0.932l-1.996,28.95C15.276,33.139,12.5,38.656,12.5,44 c0,3.616,1.305,6.717,3.712,9H6.5v2h12.727h16.546H48.5v-2H38.788z M23.434,2h7.133l1.862,27H21.571L23.434,2z M19.497,53 c-2.332-1.392-4.997-4.063-4.997-9c0-4.932,2.809-10.231,6.861-13H33.5h0.139c4.052,2.769,6.861,8.068,6.861,13 c0,4.938-2.665,7.608-4.997,9H19.497z"/> </g> </g> </g>
</svg>