<?xml version="1.0" encoding="iso-8859-1"?>
<!-- Uploaded to: SVG Repo, www.svgrepo.com, Generator: SVG Repo Mixer Tools -->
<svg fill="#000000" height="800px" width="800px" version="1.1" id="Capa_1" xmlns="http://www.w3.org/2000/svg" xmlns:xlink="http://www.w3.org/1999/xlink" 
	 viewBox="0 0 56.13 56.13" xml:space="preserve">
<g>
	<g>
		<path d="M53.206,36.81l-0.421-0.421l0.646-0.646c0.495-0.494,0.768-1.151,0.768-1.852c0-0.699-0.272-1.356-0.767-1.851
			l-6.036-6.036c-0.989-0.988-2.714-0.988-3.702,0l-0.646,0.646L29.48,13.083l0.647-0.646c1.02-1.021,1.02-2.682,0-3.702
			L24.09,2.699c-0.989-0.988-2.713-0.988-3.702,0l-0.646,0.646l-0.421-0.421c-3.899-3.897-10.244-3.899-14.142,0L2.924,5.179
			c-3.899,3.899-3.899,10.244,0,14.143l0.42,0.42l-0.646,0.646c-1.021,1.021-1.021,2.682,0,3.702l6.036,6.036
			c0.51,0.51,1.18,0.765,1.851,0.765c0.67,0,1.341-0.255,1.851-0.765l0.646-0.646L26.65,43.047l-0.647,0.647
			c-0.494,0.494-0.766,1.152-0.766,1.851s0.272,1.356,0.767,1.851l6.036,6.036c0.495,0.494,1.152,0.767,1.851,0.767
			s1.356-0.272,1.851-0.767l0.646-0.646l0.42,0.42c1.95,1.949,4.51,2.924,7.071,2.924c2.561,0,5.122-0.975,7.071-2.924l2.255-2.255
			C57.105,47.053,57.105,40.708,53.206,36.81z M45.108,27.419c0.233-0.232,0.64-0.234,0.874,0l6.036,6.036
			c0.117,0.117,0.181,0.271,0.181,0.437s-0.064,0.319-0.181,0.437l-0.646,0.646l-5.429-5.428l-1.481-1.481L45.108,27.419z
			 M21.803,4.113c0.232-0.234,0.64-0.232,0.873,0l6.036,6.036c0.241,0.241,0.241,0.633,0,0.874l-0.646,0.646l-1.481-1.481
			L21.157,4.76L21.803,4.113z M11.668,28.066l-0.646,0.646c-0.241,0.242-0.634,0.241-0.874,0.001l-6.036-6.036
			c-0.241-0.241-0.241-0.633,0-0.874l0.646-0.646l5.429,5.429L11.668,28.066z M34.974,51.372l-0.646,0.646
			c-0.232,0.234-0.64,0.232-0.873,0l-6.036-6.036c-0.117-0.116-0.181-0.271-0.181-0.437s0.064-0.32,0.181-0.437l0.646-0.646
			l0.809,0.809L34.974,51.372z M51.792,49.536l-2.255,2.255c-3.12,3.119-8.194,3.119-11.314,0l-0.42-0.42l0,0l-9.738-9.738l0,0
			L12.229,25.798l-7.47-7.471l0,0l-0.42-0.42c-3.119-3.119-3.119-8.194,0-11.314l2.255-2.255c1.56-1.56,3.608-2.339,5.657-2.339
			c2.048,0,4.097,0.779,5.657,2.339l0.421,0.421l0,0l7.47,7.47l15.836,15.837l0,0l2.268,2.267l7.891,7.891
			C54.911,41.342,54.911,46.417,51.792,49.536z"/>
		<circle cx="10.585" cy="13.915" r="1.177"/>
		<circle cx="13.915" cy="10.586" r="1.177"/>
		<circle cx="13.915" cy="17.245" r="1.177"/>
		<circle cx="17.244" cy="13.915" r="1.177"/>
		<circle cx="39.719" cy="43.048" r="1.177"/>
		<circle cx="43.048" cy="39.719" r="1.177"/>
		<circle cx="43.048" cy="46.377" r="1.177"/>
		<circle cx="46.378" cy="43.048" r="1.177"/>
	</g>
</g>
</svg>